<svg xmlns="http://www.w3.org/2000/svg" viewBox="0 0 24 24" id="pied-piper-hat"><path fill="#156D66" d="M24 3.5c-3.02 1.97-3.35 3.4-3.61 3.84-.25.45-.44 2.22-.87 3.07-.44.87-2.04 1.56-2.48 1.84-.44.29-1.06 1.41-1.57 2.37l-.24-.73c.86-1.46 1.06-1.81 1.06-1.81.2-.35 1.32-2.84 3.24-5.21C21.46 4.53 22.92 3.94 24 3.5z"></path><path fill="#156D66" d="m18.13 16.06-2.02 3.53a.45.45 0 0 1-.49.22c-4.76-.87-8.51.64-11.96.69C.9 20.54 0 19.27 0 19.21c0-.04.02-.07.06-.07 0 0 1.44 0 3.87-.56 2.76-5.16 5.22-6.97 7.9-6.97 0 0 2.69 0 3.4 2.28l.24.73c-4.06-.16-6.28 1.43-9.73 3.44 1.11-.36 1.63-.61 1.63-.61 3.53-1.33 5.22-2.52 10.54-1.81.04 0 .07.02.11.03.14.08.2.25.11.39z"></path></svg>