<svg version="1.1" id="Layer_1" xmlns="http://www.w3.org/2000/svg" xmlns:xlink="http://www.w3.org/1999/xlink" x="0px" y="0px"
	 width="100%" viewBox="0 0 496 496" enable-background="new 0 0 496 496" xml:space="preserve">
<path fill="#000000" opacity="1.000000" stroke="none" 
	d="
M322.814087,274.269989 
	C318.148682,274.750610 317.506531,271.080475 315.604126,267.987274 
	C314.057312,269.627075 312.694580,271.179413 311.216675,272.612976 
	C309.050018,274.714600 306.882019,276.991699 303.391785,275.385681 
	C300.139069,273.888947 299.002380,271.116028 298.669617,267.751099 
	C298.073364,261.720917 299.630371,256.218994 302.455170,250.912384 
	C299.239319,254.339172 296.293335,257.881897 294.170410,262.096130 
	C293.252625,263.917999 292.342133,266.621460 289.572937,265.700104 
	C286.735046,264.755890 286.457916,262.042175 286.808716,259.410248 
	C287.452667,254.579132 288.878387,249.999573 291.381683,245.780228 
	C291.770325,245.125168 291.974396,244.360641 292.020905,243.536774 
	C286.722351,250.063766 282.992157,257.498505 279.669403,265.080658 
	C277.715088,269.540222 275.711578,271.550537 271.236755,267.638397 
	C268.972473,270.383545 266.926849,272.966675 264.766937,275.450470 
	C262.954407,277.534821 260.814087,279.148315 257.810699,278.421753 
	C254.642151,277.655182 253.463287,275.156921 252.604095,272.309021 
	C251.624329,269.061401 251.901352,265.819855 252.283554,262.365082 
	C250.132309,265.473755 247.776688,268.191772 245.335953,270.846344 
	C243.208313,273.160370 240.882126,275.055054 237.519714,274.100800 
	C234.465378,273.233948 233.968582,270.441833 233.338196,267.828888 
	C233.154221,267.066315 232.855286,266.331512 232.556824,265.425446 
	C229.476990,267.630798 226.711380,269.754272 223.804993,271.663391 
	C217.088257,276.075409 213.735367,275.156128 209.724487,268.028229 
	C209.184341,267.068298 209.105927,265.766541 207.824493,265.202942 
	C206.098328,266.635101 205.286530,268.659637 204.314682,270.549866 
	C203.004822,273.097534 201.403122,275.229584 198.148895,274.337830 
	C194.600723,273.365570 194.223343,270.347687 194.776566,267.483673 
	C196.225983,259.980072 197.861786,252.505463 199.676895,245.081284 
	C202.379471,234.027222 206.807556,223.610031 212.038818,213.539352 
	C213.178543,211.345261 214.623779,209.224533 216.300064,207.414276 
	C218.865845,204.643433 222.160217,203.216690 225.720947,205.348495 
	C229.225983,207.446945 231.214798,210.659317 230.503967,214.997086 
	C230.036346,217.850571 228.763931,220.448181 227.126724,222.732849 
	C221.020645,231.253647 216.380478,240.780655 209.272934,248.614258 
	C206.823685,251.313690 206.615753,254.943512 205.707489,258.325897 
	C209.479523,252.383453 213.593796,246.757278 218.606033,241.825760 
	C220.523758,239.938919 222.597290,238.298721 224.963867,237.027191 
	C228.099075,235.342651 231.112457,235.231674 233.486237,238.226700 
	C235.755783,241.090256 234.664032,243.893280 232.739548,246.451248 
	C230.708206,249.151276 227.977707,251.095551 225.185013,252.908554 
	C223.092407,254.267044 220.873215,255.433273 218.691330,256.650970 
	C214.203537,259.155609 213.801453,260.688202 216.327011,264.822845 
	C218.737473,268.769043 221.344879,268.129242 224.585983,265.753021 
	C230.329941,261.541870 235.087372,256.588013 238.089630,250.056259 
	C238.573929,249.002625 239.206100,248.000473 239.880676,247.053391 
	C245.217377,239.560699 250.754776,239.562836 255.844421,247.039673 
	C256.969849,247.474060 257.716614,246.656281 258.563416,246.198090 
	C260.498810,245.150894 262.401794,245.048126 264.142822,246.531525 
	C266.144409,248.236908 265.924835,250.377991 264.945496,252.464401 
	C263.382446,255.794342 261.952789,259.152679 261.452148,262.831604 
	C261.099762,265.421204 260.763275,268.013000 261.002533,270.926788 
	C265.472748,267.484070 268.832092,263.291962 270.696198,257.957123 
	C271.682678,255.134003 272.458191,252.233154 273.533691,249.446442 
	C274.351593,247.327209 274.866394,244.464935 277.420105,244.056610 
	C280.186584,243.614258 280.825623,246.770065 282.833008,248.736374 
	C284.707428,246.051575 286.515076,243.371658 288.418396,240.761505 
	C290.349762,238.112900 292.631897,235.393738 296.228210,237.400314 
	C299.762054,239.371994 299.748291,242.708344 298.082611,246.126160 
	C297.450165,247.423904 296.926605,248.774704 296.788483,250.345245 
	C298.346375,248.482300 299.820770,246.540756 301.482452,244.775513 
	C303.773071,242.342102 306.343933,239.298416 309.955383,241.450226 
	C313.114227,243.332336 312.636566,246.936768 311.582397,250.072296 
	C310.417328,253.537537 308.999023,256.916809 307.749207,260.354645 
	C306.754639,263.090393 305.215607,265.725342 305.840942,270.318207 
	C311.175995,264.336426 316.191681,259.642365 319.398529,253.418213 
	C320.926300,250.453003 322.193573,247.323471 324.676666,245.004288 
	C330.513214,239.553024 333.728485,240.059891 339.045135,247.215118 
	C339.469879,247.102112 339.987488,247.070724 340.390442,246.839554 
	C342.628052,245.555939 344.901855,244.303864 347.235718,246.498672 
	C349.513184,248.640472 348.676331,251.044434 347.505554,253.378052 
	C344.777771,258.815216 343.817657,264.630127 343.472778,270.756256 
	C350.525940,268.019958 362.351990,246.062073 363.592773,233.587677 
	C357.880951,233.228073 351.878387,236.034744 345.778839,232.216080 
	C350.662201,229.406113 355.504089,229.573944 360.176575,229.783966 
	C364.456970,229.976379 367.005432,228.675476 368.391815,224.459854 
	C370.017883,219.515579 373.658417,215.623215 376.222870,211.152435 
	C376.921356,209.934753 378.236664,208.738724 379.535278,208.268494 
	C382.034515,207.363541 385.029907,206.698227 386.954834,209.084702 
	C388.691772,211.238190 386.541107,213.168930 385.291870,214.801102 
	C382.240021,218.788483 379.746704,223.051529 377.777405,227.982895 
	C381.041504,230.010757 384.787781,227.782730 387.949310,229.333664 
	C388.522491,232.212250 386.544647,232.538803 384.694031,232.406235 
	C376.294800,231.804504 372.689331,236.428741 370.193695,243.854736 
	C366.697113,254.259033 362.476044,264.417023 360.009033,275.160095 
	C359.651794,276.715668 358.713806,278.247803 360.199799,280.079407 
	C369.486725,272.267670 375.059570,261.243896 383.627777,252.782715 
	C386.203796,255.376816 384.519806,257.002838 383.456879,258.531830 
	C377.371490,267.285736 371.345825,276.088654 364.437195,284.232361 
	C362.139587,286.940735 359.740845,289.913116 355.624176,287.901855 
	C351.691559,285.980560 350.493042,282.382904 350.942474,278.246918 
	C351.221771,275.676239 351.821899,273.140472 352.338379,270.251343 
	C348.360352,273.660828 346.287689,280.723541 340.038330,278.005463 
	C333.501221,275.162170 334.773956,268.457855 335.713226,261.923950 
	C331.286682,266.447205 329.254547,272.448059 322.814087,274.269989 
M218.285828,218.803894 
	C215.694946,224.887100 213.451492,231.087494 212.054642,237.606522 
	C217.529800,228.915924 224.613663,221.019363 226.359650,209.221008 
	C221.363144,211.372620 220.481918,215.153702 218.285828,218.803894 
M244.555542,255.064835 
	C243.494873,258.669312 241.278244,262.050812 242.062820,266.389984 
	C251.493530,258.484375 253.958099,252.114319 249.762115,246.688904 
	C246.719208,248.352859 246.177689,251.615082 244.555542,255.064835 
M326.561340,265.496979 
	C328.911530,262.307831 331.169708,259.045349 333.636902,255.949478 
	C336.279999,252.632843 335.327606,249.730118 333.245850,246.664124 
	C328.999969,249.766907 324.123444,261.714264 325.216187,265.995850 
	C325.223236,266.023438 325.799042,265.905884 326.561340,265.496979 
M217.232239,251.763733 
	C222.022552,249.762314 224.878845,245.902313 227.156189,241.481293 
	C223.064163,243.951279 220.107758,247.547302 217.232239,251.763733 
z"/>
<path fill="#000000" opacity="1.000000" stroke="none" 
	d="
M113.839371,236.400635 
	C114.904442,243.500458 113.679497,250.070419 113.416115,256.801208 
	C119.489601,246.461990 126.065880,236.534164 133.673737,227.326630 
	C138.020309,222.066116 142.349243,216.785477 147.811951,212.585846 
	C149.789673,211.065430 151.860916,209.594269 153.681549,212.473358 
	C155.241135,214.939621 153.487991,216.325638 151.483292,217.623672 
	C143.962341,222.493439 138.435791,229.391068 132.976746,236.307541 
	C123.238678,248.645447 115.269012,262.044800 109.271011,276.591461 
	C108.280037,278.994812 107.054695,280.969208 104.155869,281.491608 
	C102.297440,281.826477 100.514427,282.394226 99.043373,280.804047 
	C97.639771,279.286774 98.683853,277.717804 99.110550,276.130859 
	C102.008728,265.351837 103.227936,254.472336 103.210121,243.216690 
	C103.196671,234.713760 102.183502,226.385162 101.639908,217.979187 
	C101.436707,214.836853 102.445915,212.517395 105.210037,210.886261 
	C109.687988,208.243820 112.018570,209.436340 112.336540,214.573578 
	C112.777458,221.697174 113.282860,228.816772 113.839371,236.400635 
z"/>
<path fill="#000000" opacity="1.000000" stroke="none" 
	d="
M181.335754,271.186157 
	C180.922287,272.695007 180.591965,273.811188 180.261124,274.927277 
	C176.939453,286.133118 170.601410,289.484650 159.282578,285.954437 
	C158.577179,285.734436 158.021255,285.035156 157.315125,284.497437 
	C159.264160,281.666718 161.994431,282.863617 164.308624,282.702484 
	C166.769302,282.531158 168.807114,282.333588 169.666367,279.383240 
	C174.592957,262.466919 179.650055,245.588669 184.636841,228.689835 
	C184.958420,227.600143 185.062286,226.446198 185.295776,225.166763 
	C181.911041,223.559616 177.694763,224.594376 175.189102,221.355896 
	C178.135391,218.624039 188.654984,216.760971 191.990967,218.264587 
	C193.524979,218.955978 194.343430,220.043381 194.346939,221.729858 
	C194.351807,224.060760 194.221939,226.336487 193.568787,228.635239 
	C189.571579,242.703354 186.236328,256.961243 181.335754,271.186157 
z"/>
<path fill="#000000" opacity="1.000000" stroke="none" 
	d="
M160.765823,217.381622 
	C162.705475,216.780014 164.326508,216.142273 165.983002,218.503494 
	C157.816666,222.659958 158.314087,231.179260 155.950775,238.375671 
	C154.310852,243.369385 152.110260,248.015640 146.710098,250.174042 
	C148.231476,257.539490 147.093811,264.345490 144.833725,271.052490 
	C143.529129,274.924072 142.535004,278.814941 146.924042,281.710449 
	C144.660599,285.220856 141.631088,284.751709 138.878082,283.606445 
	C135.470596,282.188873 134.742920,278.899780 135.032410,275.627197 
	C135.503174,270.305511 137.018799,265.194000 138.847870,260.172607 
	C139.759705,257.669342 140.460281,255.297058 138.278198,252.744370 
	C136.053024,250.141327 138.184814,248.197952 140.489594,247.455490 
	C144.906418,246.032669 146.617355,242.740997 147.819092,238.737595 
	C148.918625,235.074646 150.170776,231.449921 151.528610,227.874023 
	C153.231857,223.388504 155.903809,219.653839 160.765823,217.381622 
z"/>
</svg>