<?xml version="1.0" standalone="no"?>
<!DOCTYPE svg PUBLIC "-//W3C//DTD SVG 20010904//EN"
 "http://www.w3.org/TR/2001/REC-SVG-20010904/DTD/svg10.dtd">
<svg version="1.0" xmlns="http://www.w3.org/2000/svg"
 width="500.000000pt" height="500.000000pt" viewBox="0 0 500.000000 500.000000"
 preserveAspectRatio="xMidYMid meet">

<g transform="translate(0.000000,500.000000) scale(0.100000,-0.100000)"
fill="#000000" stroke="none">
<path d="M2167 2939 c-23 -18 -74 -111 -120 -219 -27 -66 -56 -165 -83 -289
-30 -134 -27 -154 19 -159 22 -3 30 4 51 47 31 60 42 68 50 37 8 -33 54 -86
74 -86 22 0 101 47 140 83 l32 31 0 -35 c0 -43 24 -79 54 -79 25 0 67 41 115
113 36 53 45 59 31 21 -13 -32 -13 -105 0 -138 12 -33 52 -43 84 -22 14 9 39
37 57 62 17 25 34 42 38 37 3 -6 15 -15 26 -21 19 -10 25 -1 83 112 34 67 71
131 82 141 24 22 26 6 4 -36 -8 -17 -13 -37 -10 -45 3 -8 2 -12 -3 -9 -10 6
-16 -9 -25 -67 -5 -26 -2 -40 10 -52 19 -20 29 -14 50 27 23 44 104 152 104
138 0 -7 -11 -38 -25 -71 -31 -74 -33 -138 -4 -174 36 -46 69 -35 131 44 27
34 28 34 28 10 0 -35 27 -70 54 -70 25 0 67 41 115 113 18 26 34 47 36 47 2 0
-1 -14 -7 -31 -6 -16 -8 -55 -6 -86 5 -59 23 -83 61 -83 19 0 70 46 99 90 16
25 16 25 7 -15 -15 -71 -11 -133 11 -155 43 -43 65 -28 179 125 120 160 135
185 125 195 -7 7 -30 -15 -69 -67 -82 -110 -158 -201 -172 -207 -34 -15 8 163
83 349 24 61 48 116 52 124 5 9 29 15 65 17 32 2 62 6 67 9 24 15 5 21 -50 17
-33 -2 -60 -2 -60 1 0 10 70 131 92 159 11 15 18 33 15 42 -8 19 -57 21 -79 4
-20 -16 -78 -110 -102 -164 l-18 -42 -92 -7 c-157 -11 -147 -33 12 -26 34 2
62 0 62 -3 0 -22 -86 -229 -113 -270 -39 -62 -86 -116 -99 -116 -16 0 0 117
24 172 11 25 18 55 16 65 -4 24 -45 29 -69 7 -10 -9 -20 -15 -22 -13 -1 2 -10
18 -19 34 -35 63 -115 30 -162 -67 -25 -52 -129 -178 -147 -178 -18 0 -9 49
22 121 50 118 42 185 -19 160 -28 -12 -45 -30 -98 -109 -25 -36 -25 -37 -18
-7 4 17 16 50 26 74 17 40 17 46 3 67 -16 25 -23 28 -50 18 -21 -8 -89 -109
-127 -188 l-29 -61 6 43 c3 24 13 55 22 68 13 20 14 30 5 49 -22 48 -48 21
-78 -80 -10 -33 -27 -73 -38 -90 -26 -41 -68 -85 -79 -85 -15 0 2 119 25 172
11 25 18 55 16 65 -4 24 -45 29 -69 7 -10 -9 -20 -15 -22 -13 -1 2 -10 18 -19
34 -32 57 -102 37 -149 -43 -49 -83 -74 -113 -124 -152 -28 -22 -58 -40 -66
-40 -19 1 -48 42 -55 79 -6 27 -3 31 65 66 116 61 162 134 107 170 -30 20 -60
9 -117 -42 -44 -40 -129 -149 -129 -168 0 -5 -9 -21 -20 -35 -19 -25 -19 -25
0 43 13 46 35 90 68 135 52 70 151 222 171 259 19 37 13 78 -15 107 -32 31
-62 33 -97 5z m89 -34 c11 -27 -60 -171 -138 -278 l-27 -39 2 40 c0 23 5 38
10 35 5 -3 6 4 2 17 -5 16 -4 20 5 15 9 -5 10 -1 5 15 -5 16 -4 20 5 15 9 -5
10 -1 5 15 -4 13 -3 20 2 17 5 -4 20 19 33 49 23 56 64 114 81 114 5 0 12 -7
15 -15z m24 -306 c0 -14 -125 -139 -139 -139 -17 0 0 26 59 93 48 53 80 72 80
46z m235 -89 c6 -31 1 -43 -46 -108 -29 -39 -57 -72 -62 -72 -28 0 33 190 70
218 21 15 30 7 38 -38z m830 0 c6 -31 1 -43 -46 -108 -29 -39 -57 -72 -62 -72
-28 0 33 190 70 218 21 15 30 7 38 -38z m306 3 c-12 -20 -14 -14 -5 12 4 9 9
14 11 11 3 -2 0 -13 -6 -23z m-27 -77 c-9 -26 -18 -45 -20 -43 -2 2 3 25 12
51 9 26 18 45 20 43 2 -2 -3 -25 -12 -51z"/>
<path d="M1036 2887 l-29 -24 11 -89 c23 -177 14 -355 -24 -501 -19 -70 -18
-73 20 -73 39 0 48 8 74 75 29 73 128 242 197 337 69 95 192 222 223 233 26 7
28 27 7 45 -12 10 -23 6 -62 -26 -62 -51 -201 -227 -270 -342 -65 -108 -79
-121 -68 -66 8 46 6 278 -3 379 -6 60 -10 70 -27 73 -11 1 -33 -8 -49 -21z m1
-539 c-3 -8 -6 -5 -6 6 -1 11 2 17 5 13 3 -3 4 -12 1 -19z"/>
<path d="M1583 2820 c-43 -26 -60 -54 -94 -156 -33 -99 -41 -112 -86 -131 -36
-14 -43 -39 -17 -58 15 -10 14 -19 -10 -94 -33 -105 -35 -174 -4 -195 25 -18
46 -20 68 -6 12 7 11 12 -5 30 -19 21 -19 22 3 108 24 96 28 162 10 180 -8 8
-5 14 14 21 40 15 70 67 98 170 22 83 29 98 57 117 30 20 34 34 9 34 -6 0 -25
-9 -43 -20z m-181 -422 c-8 -8 -9 -4 -5 13 4 13 8 18 11 10 2 -7 -1 -18 -6
-23z"/>
<path d="M1803 2818 c-35 -5 -63 -13 -63 -17 0 -9 68 -31 94 -31 25 0 32 27
-97 -405 l-54 -180 -39 -3 c-21 -1 -50 -5 -64 -8 -23 -6 -24 -7 -5 -14 37 -15
152 -11 169 5 25 25 186 562 186 620 0 24 -26 46 -52 44 -7 -1 -41 -6 -75 -11z
m-47 -544 c-8 -21 -15 -34 -15 -28 -1 15 20 76 25 71 2 -2 -2 -21 -10 -43z"/>
</g>
</svg>
